# xmcd
#
# Track frame offsets:
#	150
#	17400
#	38511
#	56173
#	77550
#	96077
#	117901
#	139350
#	162478
#	183926
#	207476
#
# Disc length: 3045 seconds
#
# Revision: 0
# Processed by: cddbd v1.5.2PL0 Copyright (c) Steve Scherf et al.
# Submitted via: EasyCDDAExtractor 2010.6.0.0
#
DISCID=8f0be30b
DTITLE=Jared Weseloh - Prairie Chillin'
DYEAR=2011
DGENRE=Country
TTITLE0=Prairie Chillin'
TTITLE1=With Me (Amanda's Song)
TTITLE2=Gotta Get Back
TTITLE3=Brothers In Heaven
TTITLE4=Momma Still Loves Me
TTITLE5=Home Again (Feat. Lori Muilenburg)
TTITLE6=All I Really Need
TTITLE7=Stays The Same
TTITLE8=Live, Love and Dream
TTITLE9=You Are My Life
TTITLE10=Life Changing Moments
EXTD=
EXTT0=
EXTT1=
EXTT2=
EXTT3=
EXTT4=
EXTT5=
EXTT6=
EXTT7=
EXTT8=
EXTT9=
EXTT10=
PLAYORDER=
